<svg xmlns="http://www.w3.org/2000/svg" viewBox="0 0 128 128" role="img" aria-label="rainbow gothic crab">
  <defs>
    <linearGradient id="rain" x1="12%" y1="12%" x2="88%" y2="88%">
      <stop offset="0" stop-color="#ff2b5f"/>
      <stop offset="0.2" stop-color="#ffb02e"/>
      <stop offset="0.4" stop-color="#eaff44"/>
      <stop offset="0.6" stop-color="#24f0a7"/>
      <stop offset="0.8" stop-color="#36a4ff"/>
      <stop offset="1" stop-color="#a349ff"/>
    </linearGradient>
    <radialGradient id="shade" cx="50%" cy="38%" r="68%">
      <stop offset="0" stop-color="rgba(255,255,255,.24)"/>
      <stop offset="0.55" stop-color="rgba(0,0,0,.18)"/>
      <stop offset="1" stop-color="rgba(0,0,0,.72)"/>
    </radialGradient>
    <filter id="glow" x="-45%" y="-45%" width="190%" height="190%">
      <feGaussianBlur stdDeviation="3" result="b"/>
      <feMerge><feMergeNode in="b"/><feMergeNode in="SourceGraphic"/></feMerge>
    </filter>
  </defs>
  <path d="M20 74 C9 65 8 48 19 38 C31 47 31 61 25 75" fill="none" stroke="#641a70" stroke-width="8" stroke-linecap="round"/>
  <path d="M108 74 C119 65 120 48 109 38 C97 47 97 61 103 75" fill="none" stroke="#641a70" stroke-width="8" stroke-linecap="round"/>
  <path d="M31 47 C35 27 50 19 64 19 C78 19 93 27 97 47 C106 52 110 66 104 79 C98 96 84 106 64 106 C44 106 30 96 24 79 C18 66 22 52 31 47Z" fill="url(#rain)" stroke="#f4eaff" stroke-width="2.5"/>
  <path d="M31 47 C35 27 50 19 64 19 C78 19 93 27 97 47 C106 52 110 66 104 79 C98 96 84 106 64 106 C44 106 30 96 24 79 C18 66 22 52 31 47Z" fill="url(#shade)"/>
  <path d="M40 46 L32 26 M88 46 L96 26" stroke="#f4eaff" stroke-width="4" stroke-linecap="round"/>
  <circle cx="42" cy="45" r="5" fill="#fff" filter="url(#glow)"/>
  <circle cx="86" cy="45" r="5" fill="#fff" filter="url(#glow)"/>
  <path d="M48 70 C56 78 72 78 80 70" fill="none" stroke="#090013" stroke-width="4" stroke-linecap="round"/>
  <path d="M34 84 L15 97 M48 93 L39 114 M64 97 L64 119 M80 93 L89 114 M94 84 L113 97" stroke="#f4eaff" stroke-width="5" stroke-linecap="round"/>
  <path d="M51 17 L64 6 L77 17 L64 13Z" fill="#050008" stroke="#fff" stroke-width="2"/>
</svg>
