<svg xmlns="http://www.w3.org/2000/svg" viewBox="0 0 128 128" role="img" aria-label="gothic crab">
  <defs>
    <radialGradient id="g" cx="50%" cy="45%" r="58%">
      <stop offset="0" stop-color="#2d2d34"/>
      <stop offset="0.65" stop-color="#0b0b10"/>
      <stop offset="1" stop-color="#000"/>
    </radialGradient>
    <filter id="glow" x="-40%" y="-40%" width="180%" height="180%">
      <feGaussianBlur stdDeviation="2.4" result="b"/>
      <feMerge><feMergeNode in="b"/><feMergeNode in="SourceGraphic"/></feMerge>
    </filter>
  </defs>
  <path d="M20 76 C11 70 8 59 14 48 C22 53 25 60 24 70" fill="none" stroke="#8b102b" stroke-width="7" stroke-linecap="round"/>
  <path d="M108 76 C117 70 120 59 114 48 C106 53 103 60 104 70" fill="none" stroke="#8b102b" stroke-width="7" stroke-linecap="round"/>
  <path d="M33 48 C36 29 52 22 64 22 C76 22 92 29 95 48 C103 52 108 63 105 74 C101 92 86 103 64 103 C42 103 27 92 23 74 C20 63 25 52 33 48Z" fill="url(#g)" stroke="#c8b6a0" stroke-width="3"/>
  <path d="M38 51 L30 33 M90 51 L98 33" stroke="#c8b6a0" stroke-width="4" stroke-linecap="round"/>
  <circle cx="41" cy="47" r="5" fill="#f3efe7" filter="url(#glow)"/>
  <circle cx="87" cy="47" r="5" fill="#f3efe7" filter="url(#glow)"/>
  <path d="M47 68 C55 75 73 75 81 68" fill="none" stroke="#7b071e" stroke-width="4" stroke-linecap="round"/>
  <path d="M37 86 L20 99 M48 93 L39 113 M64 96 L64 118 M80 93 L89 113 M91 86 L108 99" stroke="#c8b6a0" stroke-width="5" stroke-linecap="round"/>
  <path d="M64 19 L69 29 L80 31 L71 38 L73 49 L64 43 L55 49 L57 38 L48 31 L59 29Z" fill="#7b071e" stroke="#e6d7c4" stroke-width="2"/>
</svg>
