<svg xmlns="http://www.w3.org/2000/svg" viewBox="0 0 128 128" role="img" aria-label="red noir crab">
  <defs>
    <radialGradient id="body" cx="45%" cy="35%" r="65%">
      <stop offset="0" stop-color="#ff4a55"/>
      <stop offset="0.42" stop-color="#9b0a22"/>
      <stop offset="1" stop-color="#180006"/>
    </radialGradient>
    <filter id="redglow" x="-40%" y="-40%" width="180%" height="180%">
      <feGaussianBlur stdDeviation="3" result="b"/>
      <feMerge><feMergeNode in="b"/><feMergeNode in="SourceGraphic"/></feMerge>
    </filter>
  </defs>
  <path d="M22 70 C10 61 9 44 21 36 C32 46 32 60 26 73" fill="none" stroke="#7a0017" stroke-width="9" stroke-linecap="round"/>
  <path d="M106 70 C118 61 119 44 107 36 C96 46 96 60 102 73" fill="none" stroke="#7a0017" stroke-width="9" stroke-linecap="round"/>
  <path d="M32 45 C36 27 51 18 64 18 C77 18 92 27 96 45 C105 50 109 64 104 77 C98 94 84 105 64 105 C44 105 30 94 24 77 C19 64 23 50 32 45Z" fill="url(#body)" stroke="#ffbbc0" stroke-width="2.5"/>
  <path d="M41 45 L34 24 M87 45 L94 24" stroke="#ffbbc0" stroke-width="4" stroke-linecap="round"/>
  <circle cx="42" cy="44" r="5" fill="#fff0f0" filter="url(#redglow)"/>
  <circle cx="86" cy="44" r="5" fill="#fff0f0" filter="url(#redglow)"/>
  <path d="M49 69 C56 75 72 75 79 69" fill="none" stroke="#240008" stroke-width="4" stroke-linecap="round"/>
  <path d="M35 83 L16 94 M48 92 L38 113 M64 96 L64 118 M80 92 L90 113 M93 83 L112 94" stroke="#ffbbc0" stroke-width="5" stroke-linecap="round"/>
  <path d="M25 78 C36 83 49 85 64 85 C79 85 92 83 103 78" fill="none" stroke="#ff4a55" stroke-width="2" opacity=".75"/>
</svg>
